<svg xmlns="http://www.w3.org/2000/svg" viewBox="0 0 89 63" width="89" height="63">
	<defs>
		<clipPath clipPathUnits="userSpaceOnUse" id="cp1">
			<path d="M-1031 -1054L409 -1054L409 3231L-1031 3231Z" />
		</clipPath>
	</defs>
	<style>
		tspan { white-space:pre }
		.shp0 { fill: #e7e8ed } 
		.shp1 { fill: #203f57 } 
		.shp2 { fill: #ffffff } 
		.shp3 { fill: #0b1a26 } 
	</style>
	<g id="Homepage: Desktop" clip-path="url(#cp1)">
		<g id="Value props">
			<g id="delivery">
				<path id="Path" class="shp0" d="M62 51L7.41 51C5.53 51 4 49.47 4 47.6L4 3.4C4 1.53 5.53 0 7.41 0L58.59 0C60.46 0 62 1.53 62 3.4L62 51Z" />
				<path id="Path" class="shp1" d="M62 20L68.86 20C78.29 20 86 27.75 86 37.22L86 51L62 51L62 20Z" />
				<path id="Path" class="shp2" d="M67 39L67 25L68.75 25C75.57 25 81 30.42 81 37.25L81 39L67 39Z" />
				<path id="Path" class="shp3" d="M86.43 56L2.57 56C1.2 56 0 54.83 0 53.5C0 52.17 1.2 51 2.57 51L86.43 51C87.8 51 89 52.17 89 53.5C89 54.83 87.8 56 86.43 56Z" />
				<path id="Oval" class="shp3" d="M20.5 63C25.19 63 29 59.19 29 54.5C29 49.81 25.19 46 20.5 46C15.81 46 12 49.81 12 54.5C12 59.19 15.81 63 20.5 63Z" />
				<path id="Oval" class="shp2" d="M20.5 58C22.43 58 24 56.43 24 54.5C24 52.57 22.43 51 20.5 51C18.57 51 17 52.57 17 54.5C17 56.43 18.57 58 20.5 58Z" />
				<path id="Oval" class="shp3" d="M71.5 63C76.19 63 80 59.19 80 54.5C80 49.81 76.19 46 71.5 46C66.81 46 63 49.81 63 54.5C63 59.19 66.81 63 71.5 63Z" />
				<path id="Oval" class="shp2" d="M71.5 58C73.43 58 75 56.43 75 54.5C75 52.57 73.43 51 71.5 51C69.57 51 68 52.57 68 54.5C68 56.43 69.57 58 71.5 58Z" />
				<path id="Rectangle" class="shp1" d="M3 39L10 39L10 44L3 44L3 39Z" />
				<path id="Rectangle" class="shp3" d="M81 43L86 43L86 48L81 48L81 43Z" />
				<g id="Group">
					<path id="Path" class="shp3" d="M12.17 31.25L12.17 19.17L20.03 19.17L20.03 21.45L14.73 21.45L14.73 24.07L19.35 24.07L19.35 26.35L14.73 26.35L14.73 31.25L12.17 31.25Z" />
					<path id="Shape" fill-rule="evenodd" class="shp3" d="M25.5 19C27.2 19 28.57 19.35 29.6 20.05C30.62 20.75 30.96 21.62 30.96 23.02C30.96 23.9 30.79 24.6 30.45 25.12C30.11 25.65 29.6 26 28.74 26.35C28.91 26.7 29.25 27.05 29.42 27.4C29.77 27.75 29.94 28.27 30.28 28.62C30.62 28.97 30.79 29.5 30.96 30.02C31.13 30.55 31.47 30.9 31.65 31.42L28.74 31.42C28.57 31.07 28.23 30.55 28.06 30.2C27.89 29.85 27.55 29.32 27.37 28.97C27.2 28.62 26.86 28.27 26.69 27.92C26.52 27.57 26.18 27.22 26.01 27.05L24.64 27.05L24.64 31.25L21.91 31.25L21.91 19.35C22.42 19.17 23.1 19.17 23.79 19.17C24.47 19 24.98 19 25.5 19ZM25.67 21.27C25.5 21.27 25.32 21.27 25.15 21.27C24.98 21.27 24.81 21.27 24.64 21.27L24.64 24.6L25.32 24.6C26.35 24.6 27.03 24.42 27.55 24.25C28.06 24.07 28.23 23.55 28.23 22.85C28.23 22.32 28.06 21.8 27.55 21.62C27.2 21.45 26.52 21.27 25.67 21.27Z" />
					<path id="Path" class="shp3" d="M33.35 31.25L33.35 19.17L41.38 19.17L41.38 21.45L36.09 21.45L36.09 23.9L40.87 23.9L40.87 26L36.09 26L36.09 28.97L41.72 28.97L41.72 31.25L33.35 31.25Z" />
					<path id="Path" class="shp3" d="M43.77 31.25L43.77 19.17L51.8 19.17L51.8 21.45L46.51 21.45L46.51 23.9L51.29 23.9L51.29 26L46.51 26L46.51 28.97L52.15 28.97L52.15 31.25L43.77 31.25Z" />
				</g>
			</g>
		</g>
	</g>
</svg>