<?xml version="1.0" encoding="UTF-8"?>
<svg width="18px" height="20px" viewBox="0 0 18 20" version="1.1" xmlns="http://www.w3.org/2000/svg" xmlns:xlink="http://www.w3.org/1999/xlink">
    <!-- Generator: Sketch 59.1 (86144) - https://sketch.com -->
    <title>grid</title>
    <desc>Created with Sketch.</desc>
    <g id="Map-Your-Night" stroke="none" stroke-width="1" fill="none" fill-rule="evenodd">
        <g id="Design-page:-Desktop---form-complete" transform="translate(-1160.000000, -655.000000)" fill="#000000" fill-rule="nonzero">
            <g id="Options" transform="translate(855.000000, 650.000000)">
                <g id="grid" transform="translate(305.000000, 5.000000)">
                    <path d="M9.14742498,0.673664972 L9.14742498,0.161080225 C9.14742498,0.0634558463 9.0865717,0 8.99295125,0 C8.89933081,0 8.83847752,0.0634558463 8.83847752,0.161080225 L8.83847752,0.673664972 C5.73000662,0.7322396 3.00075296,2.45054218 1.42782063,5.00852794 C1.38569143,5.03293404 1.3576053,5.07686501 1.35292428,5.13543964 C0.524328917,6.53163853 0.0421291998,8.16696039 0.0187240888,9.91943151 C0.00936204441,9.9438376 0,9.9682437 0,9.99753101 C0,10.0268183 0.0046810222,10.0512244 0.0140430666,10.0707493 C0.0280861332,15.1671392 3.96515239,19.3213971 8.83853195,19.4190782 L8.83853195,19.8389198 C8.83853195,19.9365442 8.89938524,20 8.99300568,20 C9.08662613,20 9.14747941,19.9365442 9.14747941,19.8389198 L9.14747941,19.4190782 C14.0395831,19.3409219 18,15.1671392 18,10.0463432 C18,4.92554722 14.0394742,0.751764476 9.14742498,0.673664972 Z M4.81715286,9.84133201 L2.1159309,9.84133201 C2.14401703,8.18648527 2.51387222,6.63896859 3.13176715,5.31116352 L5.39291859,5.31116352 C5.04184193,6.64390656 4.83119593,8.19136649 4.81715286,9.84133201 Z M4.82177945,10.158668 C4.8311415,11.8037523 5.02774443,13.3463878 5.36951348,14.6887797 L3.09905442,14.6887797 C2.4904671,13.3560934 2.13465499,11.8086335 2.12061192,10.158668 L4.82177945,10.158668 L4.82177945,10.158668 Z M3.29103076,4.98900307 C4.29287838,3.04122643 5.85176763,1.63044064 7.66811311,1.16178687 C6.76462139,1.8500955 5.9921983,3.21695032 5.48191245,4.98900307 L3.29103076,4.98900307 Z M5.8938424,1.59139089 C4.68602981,2.34809334 3.66551254,3.52940509 2.94920728,4.98900307 L1.80698343,4.98900307 C2.79478798,3.46106802 4.22260861,2.26511262 5.8938424,1.59139089 Z M1.6103805,5.31122028 L2.799469,5.31122028 C2.19556271,6.64390656 1.84443161,8.19136649 1.81634548,9.84138876 L0.327671554,9.84138876 C0.36043871,8.18160405 0.823914339,6.63414413 1.6103805,5.31122028 Z M0.322990532,10.158668 L1.81166445,10.158668 C1.82570752,11.8037523 2.16742214,13.3463878 2.75260435,14.6887797 L1.54952721,14.6887797 C0.791092753,13.3561502 0.341714621,11.8086335 0.322990532,10.158668 Z M1.74613014,15.0061157 L2.90239706,15.0061157 C3.62332891,16.5096447 4.6626247,17.7251817 5.8938424,18.5013523 C4.18516043,17.8130436 2.73861571,16.5779817 1.74613014,15.0061157 Z M3.24884713,15.0061157 L5.45377188,15.0061157 C5.95937671,16.8220994 6.74116185,18.228004 7.66337765,18.9260751 C5.82830809,18.4427776 4.25069474,16.9978233 3.24884713,15.0061157 Z M8.83847752,19.0920365 C7.55576857,18.9602436 6.43221438,17.368796 5.76277378,15.0061157 L8.83847752,15.0061157 L8.83847752,19.0920365 Z M8.83847752,14.6887797 L5.67851538,14.6887797 C5.33674633,13.3609747 5.13546237,11.8135147 5.12610033,10.158668 L8.83847752,10.158668 L8.83847752,14.6887797 Z M8.83847752,9.84133201 L5.12610033,9.84133201 C5.14014339,8.18648527 5.35078939,6.63896859 5.69723947,5.31116352 L8.83847752,5.31116352 L8.83847752,9.84133201 Z M8.83847752,4.98900307 L5.78617889,4.98900307 C6.45561949,2.68001623 7.56513062,1.12279387 8.83847752,0.995825423 L8.83847752,4.98900307 Z M17.6909981,9.83645079 L16.2023242,9.83645079 C16.174238,8.18648527 15.8184804,6.64390656 15.2192007,5.3062823 L16.4082892,5.3062823 C17.1900743,6.63414413 17.6535499,8.18160405 17.6909981,9.83645079 Z M13.1968358,10.1537868 L15.8980033,10.1537868 C15.8839602,11.8086335 15.5282026,13.3561502 14.9195608,14.6838985 L12.6444207,14.6838985 C12.9861898,13.3463878 13.1874737,11.7988711 13.1968358,10.1537868 Z M13.1921548,9.83645079 C13.1781117,8.18648527 12.9674657,6.64390656 12.6163346,5.3062823 L14.8727506,5.3062823 C15.495381,6.63408737 15.8652362,8.18154729 15.8932679,9.83645079 L13.1921548,9.83645079 Z M16.2070052,4.98900307 L15.0647269,4.98900307 C14.3484761,3.52940509 13.3279044,2.34803659 12.1200918,1.59139089 C13.79138,2.26511262 15.2192007,3.46106802 16.2070052,4.98900307 Z M14.7182769,4.98900307 L12.5320762,4.98900307 C12.0217903,3.21700707 11.2493672,1.85015225 10.3458755,1.16178687 C12.15754,1.63532186 13.7164837,3.04122643 14.7182769,4.98900307 Z M9.14274396,0.995825423 C10.4207719,1.10321224 11.5443261,2.66049136 12.2231287,4.98900307 L9.14274396,4.98900307 L9.14274396,0.995825423 L9.14274396,0.995825423 Z M9.14274396,5.30633906 L12.3120137,5.30633906 C12.6630904,6.62926291 12.8691098,8.17672283 12.8878339,9.83645079 L9.14274396,9.83645079 L9.14274396,5.30633906 Z M9.14274396,14.6838985 L9.14274396,10.1537868 L12.8878883,10.1537868 C12.8785263,11.8086335 12.6772423,13.3561502 12.3354733,14.6838985 L9.14274396,14.6838985 Z M9.14742498,15.0061157 L12.2512149,15.0061157 C11.5770932,17.3883776 10.439496,18.9895309 9.14742498,19.0969177 L9.14742498,15.0061157 Z M12.5601623,15.0061157 L14.7697681,15.0061157 C13.7726015,17.0027045 12.1903071,18.4476589 10.3505021,18.9309563 C11.2681458,18.228004 12.0499309,16.8269239 12.5601623,15.0061157 Z M12.1014221,18.5062335 C13.3373209,17.7349441 14.3812433,16.5096447 15.1068561,15.0061157 L16.2678585,15.0061157 C15.2707463,16.5828629 13.8195206,17.8228061 12.1014221,18.5062335 Z M16.4644614,14.6887797 L15.2613299,14.6887797 C15.8465121,13.346331 16.1882811,11.8037523 16.2023242,10.158668 L17.6909981,10.158668 C17.672274,11.8135147 17.2275225,13.3610314 16.4644614,14.6887797 Z" id="Shape"></path>
                </g>
            </g>
        </g>
    </g>
</svg>