<?xml version="1.0" encoding="UTF-8"?>
<svg width="18px" height="11px" viewBox="0 0 18 11" version="1.1" xmlns="http://www.w3.org/2000/svg" xmlns:xlink="http://www.w3.org/1999/xlink">
    <!-- Generator: Sketch 59.1 (86144) - https://sketch.com -->
    <title>down-arrow</title>
    <desc>Created with Sketch.</desc>
    <g id="Map-Your-Night" stroke="none" stroke-width="1" fill="none" fill-rule="evenodd">
        <g id="Design-page:-Desktop---form-complete" transform="translate(-990.000000, -382.000000)" fill="#0B1A26" fill-rule="nonzero">
            <g id="Date-fieldgroup" transform="translate(855.000000, 323.000000)">
                <g id="Month">
                    <g id="down-arrow" transform="translate(144.000000, 64.500000) scale(-1, 1) translate(-144.000000, -64.500000) translate(135.000000, 59.000000)">
                        <path d="M17.7122903,0.919366827 L17.1226758,0.305092911 C16.9371133,0.113255334 16.6902333,0.0075705437 16.4263775,0.0075705437 C16.162668,0.0075705437 15.9154952,0.113255334 15.7299328,0.305092911 L9.00402442,7.2642395 L2.27035992,0.297370957 C2.08509012,0.105533379 1.83791738,0 1.57420792,0 C1.31049846,0 1.06317938,0.105533379 0.877763234,0.297370957 L0.288002341,0.907859601 C-0.0960007805,1.30485891 -0.0960007805,1.95153476 0.288002341,2.34853407 L8.30523825,10.6732553 C8.49050805,10.8649415 8.73738811,11 9.00343905,11 L9.00651225,11 C9.27036805,11 9.51724811,10.8647901 9.70251791,10.6732553 L17.7122903,2.37109429 C17.8978528,2.17940812 17.9997073,1.91625602 18,1.64341363 C18,1.37041982 17.8978528,1.11090158 17.7122903,0.919366827 Z" id="Path"></path>
                    </g>
                </g>
            </g>
        </g>
    </g>
</svg>