<?xml version="1.0" encoding="UTF-8"?>
<svg width="14px" height="14px" viewBox="0 0 14 14" version="1.1" xmlns="http://www.w3.org/2000/svg" xmlns:xlink="http://www.w3.org/1999/xlink">
    <!-- Generator: Sketch 59.1 (86144) - https://sketch.com -->
    <title>link</title>
    <desc>Created with Sketch.</desc>
    <g id="Map-Your-Night" stroke="none" stroke-width="1" fill="none" fill-rule="evenodd">
        <g id="Design-page:-Desktop---form-complete" transform="translate(-1191.000000, -1131.000000)" fill="#000000" fill-rule="nonzero">
            <g id="link" transform="translate(1191.000000, 1131.000000)">
                <path d="M13.3571059,0 L8.21422899,0 C7.85919254,0 7.57136247,0.287829402 7.57136247,0.642865035 C7.57136247,0.997900668 7.85919254,1.28573007 8.21422899,1.28573007 L11.8051162,1.28573007 L5.18825661,7.90260207 C4.9372478,8.1536103 4.9372478,8.56065963 5.18825661,8.81172311 C5.3137472,8.93721341 5.47826888,9 5.64279055,9 C5.80731223,9 5.97186153,8.93721341 6.0973245,8.81169549 L12.714267,2.19485111 L12.714267,5.78573007 C12.714267,6.1407657 13.002097,6.42859511 13.3571335,6.42859511 C13.7121699,6.42859511 14,6.1407657 14,5.78573007 L14,0.642865035 C14,0.287829402 13.7121423,0 13.3571059,0 Z" id="Path"></path>
                <path d="M10.3888568,6.66665791 C10.0513547,6.66665791 9.77773985,6.94027342 9.77773985,7.27777632 L9.77773985,12.7777894 L1.22220763,12.7777894 L1.22220763,4.22221055 L6.72220763,4.22221055 C7.05970972,4.22221055 7.33332458,3.94859504 7.33332458,3.61109215 C7.33332458,3.27358925 7.05970972,3 6.72220763,3 L0.611116946,3 C0.273614858,3 0,3.27361551 0,3.61111841 L0,13.3889079 C0,13.7263845 0.273614858,14 0.611116946,14 L10.3888831,14 C10.7263851,14 11,13.7263845 11,13.3888816 L11,7.27777632 C11,6.94027342 10.7263589,6.66665791 10.3888568,6.66665791 Z" id="Path"></path>
            </g>
        </g>
    </g>
</svg>