<svg xmlns="http://www.w3.org/2000/svg" xmlns:xlink="http://www.w3.org/1999/xlink" width="100%" height="100%" viewBox="0 0 177 129" version="1.1" id="stamped-badge-svg-3" class="stamped-badge-svg">
        <defs>
            <text id="stamped-badge-count-color" font-family="Helvetica-Bold, Helvetica" font-size="38" font-weight="bold" fill="#FFFFFF">
                <tspan x="67" y="62" id="stamped-badge-total">11</tspan>
            </text>
            <filter x="-50%" y="-50%" width="200%" height="200%" filterUnits="objectBoundingBox" id="filter-2">
                <feOffset dx="1" dy="1" in="SourceAlpha" result="shadowOffsetOuter1"></feOffset>
                <feColorMatrix values="0 0 0 0 0   0 0 0 0 0   0 0 0 0 0  0 0 0 0.198935688 0" type="matrix" in="shadowOffsetOuter1"></feColorMatrix>
            </filter>
            <path d="M53.5611285,80.8416928 L49.7045939,82.869193 L50.4411265,78.5748786 L47.3211245,75.5336283 L51.6328612,74.9070963 L53.5611285,71 L55.4893958,74.9070963 L59.8011326,75.5336283 L56.6811305,78.5748786 L57.4176631,82.869193 L53.5611285,80.8416928 Z M121.984326,80.8416928 L118.127791,82.869193 L118.864324,78.5748786 L115.744322,75.5336283 L120.056059,74.9070963 L121.984326,71 L123.912593,74.9070963 L128.22433,75.5336283 L125.104328,78.5748786 L125.840861,82.869193 L121.984326,80.8416928 Z M105.112853,80.8416928 L101.256318,82.869193 L101.992851,78.5748786 L98.8728486,75.5336283 L103.184585,74.9070963 L105.112853,71 L107.04112,74.9070963 L111.352857,75.5336283 L108.232855,78.5748786 L108.969387,82.869193 L105.112853,80.8416928 Z M88.2413793,80.8416928 L84.3848447,82.869193 L85.1213773,78.5748786 L82.0013753,75.5336283 L86.313112,74.9070963 L88.2413793,71 L90.1696466,74.9070963 L94.4813833,75.5336283 L91.3613813,78.5748786 L92.0979139,82.869193 L88.2413793,80.8416928 Z M70.4326019,80.8416928 L66.5760673,82.869193 L67.3125999,78.5748786 L64.1925978,75.5336283 L68.5043346,74.9070963 L70.4326019,71 L72.3608692,74.9070963 L76.6726059,75.5336283 L73.5526039,78.5748786 L74.2891365,82.869193 L70.4326019,80.8416928 Z" id="stamped-badge-stars-color"></path>
            <filter x="-50%" y="-50%" width="200%" height="200%" filterUnits="objectBoundingBox" id="filter-40">
                <feOffset dx="1" dy="1" in="SourceAlpha" result="shadowOffsetOuter1"></feOffset>
                <feColorMatrix values="0 0 0 0 0   0 0 0 0 0   0 0 0 0 0  0 0 0 0.198935688 0" type="matrix" in="shadowOffsetOuter1"></feColorMatrix>
            </filter>
        </defs>
        <g id="Wireframes" stroke="none" stroke-width="1" fill="none" fill-rule="evenodd">
            <g id="Desktop-HD" transform="translate(-836.000000, -857.000000)">
                <g id="badge-3" transform="translate(836.000000, 857.000000)">
                    <path d="M150.5204,58.8973 L150.5204,58.8973 C147.6924,56.8143 147.0644,52.8453 149.1094,49.9913 C151.6284,46.4743 150.0204,41.5243 145.9154,40.1603 C142.5834,39.0523 140.7584,35.4723 141.8214,32.1253 C143.1304,28.0023 140.0704,23.7923 135.7454,23.7623 C132.2334,23.7393 129.3924,20.8983 129.3694,17.3863 C129.3404,13.0613 125.1294,10.0013 121.0064,11.3103 C117.6594,12.3743 114.0794,10.5493 112.9714,7.2163 C111.6074,3.1123 106.6574,1.5033 103.1414,4.0223 C100.2864,6.0673 96.3174,5.4393 94.2344,2.6113 C91.6684,-0.8707 86.4634,-0.8707 83.8974,2.6113 C81.8144,5.4393 77.8454,6.0673 74.9914,4.0223 C71.4744,1.5033 66.5244,3.1123 65.1604,7.2163 C64.0524,10.5493 60.4724,12.3743 57.1254,11.3103 C53.0024,10.0013 48.7914,13.0613 48.7624,17.3863 C48.7394,20.8983 45.8984,23.7393 42.3864,23.7623 C38.0614,23.7923 35.0014,28.0023 36.3104,32.1253 C37.3734,35.4723 35.5494,39.0523 32.2164,40.1603 C28.1114,41.5243 26.5034,46.4743 29.0224,49.9913 C31.0674,52.8453 30.4384,56.8143 27.6114,58.8973 C24.1294,61.4633 24.1294,66.6683 27.6114,69.2343 C30.4384,71.3173 31.0674,75.2863 29.0224,78.1413 C26.5034,81.6573 28.1114,86.6073 32.2164,87.9713 C35.5494,89.0793 37.3734,92.6593 36.3104,96.0063 C35.0014,100.1283 38.0614,104.3403 42.3864,104.3693 C45.8984,104.3923 48.7394,107.2343 48.7624,110.7463 C48.7914,115.0713 53.0024,118.1303 57.1254,116.8213 C60.4724,115.7583 64.0524,117.5833 65.1604,120.9163 C66.5244,125.0203 71.4744,126.6283 74.9914,124.1093 C77.8454,122.0643 81.8144,122.6933 83.8974,125.5203 C86.4634,129.0023 91.6684,129.0023 94.2344,125.5203 C96.3174,122.6933 100.2864,122.0643 103.1414,124.1093 C106.6574,126.6283 111.6074,125.0203 112.9714,120.9163 C114.0794,117.5833 117.6594,115.7583 121.0064,116.8213 C125.1294,118.1303 129.3404,115.0713 129.3694,110.7463 C129.3924,107.2343 132.2334,104.3923 135.7454,104.3693 C140.0704,104.3403 143.1304,100.1283 141.8214,96.0063 C140.7584,92.6593 142.5834,89.0793 145.9154,87.9713 C150.0204,86.6073 151.6284,81.6573 149.1094,78.1413 C147.0644,75.2863 147.6924,71.3173 150.5204,69.2343 C154.0024,66.6683 154.0024,61.4633 150.5204,58.8973" id="stamped-badge-border" fill="#F2BA49"></path>
                    <circle id="stamped-badge-inner" fill="gold" cx="89" cy="65" r="53"></circle>
                    <path d="M89,114 C116.061953,114 138,92.0619527 138,65 C138,37.9380473 116.061953,16 89,16 C61.9380473,16 40,37.9380473 40,65 C40,92.0619527 61.9380473,114 89,114 Z M89,112 C114.957383,112 136,90.9573832 136,65 C136,39.0426168 114.957383,18 89,18 C63.0426168,18 42,39.0426168 42,65 C42,90.9573832 63.0426168,112 89,112 Z" id="stamped-badge-outer" fill="#F2BA49"></path>
                    <g id="stamped-badge-count" fill-opacity="1" fill="#FFFFFF">
                        <use filter="url(#filter-2)" xlink:href="#stamped-badge-count-color"></use>
                        <use xlink:href="#stamped-badge-count-color"></use>
                    </g>
                    <g id="stamped-badge-stars">
                        <use fill="black" fill-opacity="1" filter="url(#filter-40)" xlink:href="#stamped-badge-stars-color"></use>
                        <use fill="#FFFFFF" fill-rule="evenodd" xlink:href="#stamped-badge-stars-color"></use>
                    </g>
                    <g id="stamped-badge-ribbon" transform="translate(0.000000, 91.000000)">
                        <path d="M0,9.9696 L12.6389063,23.6796 L0,37.3886 L0,37.6946 L40.2324688,37.6946 L40.2324688,9.9696 L0,9.9696 Z M176.120623,10.2742 L163.482639,23.9842 L176.120623,37.6932 L176.120623,38.0002 L135.888155,38.0002 L135.888155,10.2742 L176.120623,10.2742 Z" id="stamped-badge-ribbon-background" fill="#3E85FF"></path>
                        <path d="M25.8613594,29.8587 L40.2324687,37.6947 L40.2324687,29.8587 L25.8613594,29.8587 Z M150.258988,30.1638 L135.887878,37.9998 L135.887878,30.1638 L150.258988,30.1638 Z" id="shades" fill="#000000"></path>
                        <polygon id="stamped-badge-ribbon-foreground" fill="#3E85FF" points="25.8622813 30.164 150.259172 30.164 150.259172 0.213 25.8622813 0.213"></polygon>
                        <text id="Verified-Reviews" font-family="Helvetica-Bold, Helvetica" font-size="14" font-weight="bold" fill="#FFFFFF">
                            <tspan x="32.3623047" y="20" id="stamped-badge-title" style="font-size: 12px;">VERIFIED REVIEWS</tspan>
                        </text>
                    </g>
                </g>
            </g>
        </g>
    </svg>
